<?xml version="1.0" standalone="no"?>
<!DOCTYPE svg PUBLIC "-//W3C//DTD SVG 20010904//EN"
 "http://www.w3.org/TR/2001/REC-SVG-20010904/DTD/svg10.dtd">
<svg version="1.0" xmlns="http://www.w3.org/2000/svg"
 width="300.000000pt" height="300.000000pt" viewBox="0 0 300.000000 300.000000"
 preserveAspectRatio="xMidYMid meet">
<metadata>
Created by potrace 1.11, written by Peter Selinger 2001-2013
</metadata>
<g transform="translate(0.000000,300.000000) scale(0.100000,-0.100000)"
fill="#000000" stroke="none">
<path d="M1135 2496 c-349 -70 -593 -330 -686 -736 -26 -111 -37 -383 -20
-501 48 -330 204 -580 437 -697 110 -56 164 -67 324 -66 129 0 154 3 225 27
205 68 380 230 513 476 l39 72 26 -106 c62 -247 156 -389 286 -433 43 -15 132
-15 204 -1 l57 12 0 136 0 136 -63 0 c-51 0 -70 5 -99 24 -80 55 -136 186
-187 441 -52 255 -66 181 119 662 90 233 171 444 181 471 l19 47 -163 0 -163
0 -81 -247 c-77 -233 -82 -246 -93 -218 -64 169 -196 332 -337 418 -104 63
-200 89 -343 93 -79 2 -151 -2 -195 -10z m328 -276 c114 -43 216 -149 292
-305 51 -105 101 -251 117 -346 11 -63 10 -70 -21 -160 -44 -128 -139 -321
-195 -396 -140 -186 -318 -276 -490 -246 -154 26 -263 115 -340 276 -71 148
-81 201 -80 427 0 220 13 289 79 429 95 199 225 310 405 345 53 10 176 -2 233
-24z"/>
</g>
</svg>
